<svg xmlns="http://www.w3.org/2000/svg" viewBox="0 0 100 160" preserveAspectRatio="xMidYMid slice">
  <defs>
    <linearGradient id="g" x1="0" y1="0" x2="1" y2="1">
      <stop offset="0" stop-color="#0d2a22"/>
      <stop offset="1" stop-color="#041a14"/>
    </linearGradient>
  </defs>
  <rect width="100" height="160" fill="url(#g)"/>
  <rect x="4" y="4" width="92" height="152" rx="4" fill="none" stroke="#4a9b6e" stroke-width="0.8"/>
  <!-- 넝쿨/잎 모티브 -->
  <g stroke="#4a9b6e" fill="none" stroke-width="0.6" opacity="0.9">
    <path d="M20 150 Q 30 120 20 100 Q 10 80 20 60 Q 30 40 20 20"/>
    <path d="M80 150 Q 70 120 80 100 Q 90 80 80 60 Q 70 40 80 20"/>
  </g>
  <g fill="#c9a656" opacity="0.8">
    <path d="M50 50 Q 56 60 50 80 Q 44 60 50 50 Z"/>
    <path d="M50 110 Q 56 100 50 80 Q 44 100 50 110 Z"/>
    <circle cx="50" cy="80" r="3"/>
  </g>
</svg>
