<svg xmlns="http://www.w3.org/2000/svg" viewBox="0 0 100 160" preserveAspectRatio="xMidYMid slice">
  <defs>
    <linearGradient id="bg" x1="0" y1="0" x2="0.4" y2="1">
      <stop offset="0" stop-color="#1c2030"/>
      <stop offset="1" stop-color="#0a0c14"/>
    </linearGradient>
    <radialGradient id="glow" cx="50%" cy="50%" r="50%">
      <stop offset="0" stop-color="#e0d8f4" stop-opacity="0.35"/>
      <stop offset="1" stop-color="#e0d8f4" stop-opacity="0"/>
    </radialGradient>
  </defs>
  <rect width="100" height="160" fill="url(#bg)"/>
  <rect x="4" y="4" width="92" height="152" rx="4" fill="none" stroke="#e0d8f4" stroke-width="0.8"/>
  <rect x="7" y="7" width="86" height="146" rx="3" fill="none" stroke="#e0d8f4" stroke-width="0.3" opacity="0.5"/>
  <circle cx="50" cy="80" r="32" fill="url(#glow)"/>
  <!-- 깃털 X 교차 -->
  <g stroke="#e0d8f4" stroke-width="0.6" fill="none" stroke-linecap="round">
    <!-- 좌측 깃털 -->
    <g transform="translate(50 80) rotate(-22)">
      <path d="M 0 0 C -2 -10 -4 -22 -2 -38" stroke-width="1.2"/>
      <g opacity="0.8">
        <path d="M -1 -8 Q -8 -10 -10 -6"/>
        <path d="M -1.5 -14 Q -10 -16 -13 -12"/>
        <path d="M -2 -20 Q -11 -22 -14 -18"/>
        <path d="M -2 -26 Q -10 -28 -12 -24"/>
        <path d="M -1.5 -32 Q -7 -34 -8 -30"/>
        <path d="M -1 -8 Q 6 -10 8 -6"/>
        <path d="M -1.5 -14 Q 8 -16 11 -12"/>
        <path d="M -2 -20 Q 9 -22 12 -18"/>
        <path d="M -2 -26 Q 8 -28 10 -24"/>
        <path d="M -1.5 -32 Q 5 -34 6 -30"/>
      </g>
    </g>
    <!-- 우측 깃털 -->
    <g transform="translate(50 80) rotate(22)">
      <path d="M 0 0 C 2 -10 4 -22 2 -38" stroke-width="1.2"/>
      <g opacity="0.8">
        <path d="M 1 -8 Q 8 -10 10 -6"/>
        <path d="M 1.5 -14 Q 10 -16 13 -12"/>
        <path d="M 2 -20 Q 11 -22 14 -18"/>
        <path d="M 2 -26 Q 10 -28 12 -24"/>
        <path d="M 1.5 -32 Q 7 -34 8 -30"/>
        <path d="M 1 -8 Q -6 -10 -8 -6"/>
        <path d="M 1.5 -14 Q -8 -16 -11 -12"/>
        <path d="M 2 -20 Q -9 -22 -12 -18"/>
        <path d="M 2 -26 Q -8 -28 -10 -24"/>
        <path d="M 1.5 -32 Q -5 -34 -6 -30"/>
      </g>
    </g>
    <!-- 중앙 작은 별 -->
    <g transform="translate(50 82)" fill="#e0d8f4" stroke="none">
      <path d="M 0 -3 L 0.6 -0.6 L 3 0 L 0.6 0.6 L 0 3 L -0.6 0.6 L -3 0 L -0.6 -0.6 Z"/>
    </g>
  </g>
</svg>
